<svg width="112" height="121" viewBox="0 0 112 121" fill="none" xmlns="http://www.w3.org/2000/svg">
<path d="M54.4047 1.10992C55.2049 0.0515459 56.7951 0.0515467 57.5953 1.10992L76.2352 25.7625C76.5743 26.211 77.0865 26.496 77.6464 26.5477L109.429 29.4854C110.816 29.6136 111.651 31.0859 111.048 32.3422L97.9503 59.6347C97.6878 60.1817 97.6878 60.8183 97.9503 61.3653L111.048 88.6578C111.651 89.9141 110.816 91.3864 109.429 91.5146L77.6464 94.4523C77.0865 94.504 76.5743 94.7891 76.2352 95.2376L57.5953 119.89C56.7951 120.948 55.2049 120.948 54.4047 119.89L35.7648 95.2376C35.4257 94.7891 34.9135 94.504 34.3536 94.4523L2.57136 91.5146C1.18384 91.3864 0.349444 89.9141 0.952316 88.6578L14.0498 61.3653C14.3123 60.8183 14.3123 60.1817 14.0498 59.6347L0.952314 32.3422C0.349443 31.0859 1.18384 29.6136 2.57136 29.4854L34.3536 26.5477C34.9135 26.496 35.4257 26.211 35.7648 25.7625L54.4047 1.10992Z" fill="#B5EBE5" fill-opacity="0.78"/>
</svg>
